{
	"asset":{
		"generator":"Khronos glTF Blender I/O v4.5.47",
		"version":"2.0"
	},
	"extensionsUsed":[
		"KHR_materials_specular"
	],
	"scene":0,
	"scenes":[
		{
			"name":"Scene",
			"nodes":[
				0
			]
		}
	],
	"nodes":[
		{
			"mesh":0,
			"name":"monorail_trainPassenger",
			"rotation":[
				0.7071068286895752,
				0,
				0,
				0.7071068286895752
			]
		}
	],
	"materials":[
		{
			"doubleSided":true,
			"extensions":{
				"KHR_materials_specular":{
					"specularFactor":0
				}
			},
			"name":"metalRed",
			"pbrMetallicRoughness":{
				"baseColorFactor":[
					1,
					0.6285241842269897,
					0.20283019542694092,
					1
				],
				"metallicFactor":0
			}
		},
		{
			"doubleSided":true,
			"extensions":{
				"KHR_materials_specular":{
					"specularFactor":0
				}
			},
			"name":"metal",
			"pbrMetallicRoughness":{
				"baseColorFactor":[
					0.8431373238563538,
					0.8705881834030151,
					0.9098039269447327,
					1
				],
				"metallicFactor":0
			}
		},
		{
			"doubleSided":true,
			"extensions":{
				"KHR_materials_specular":{
					"specularFactor":0
				}
			},
			"name":"metalDark",
			"pbrMetallicRoughness":{
				"baseColorFactor":[
					0.6750622987747192,
					0.7100219130516052,
					0.7735849022865295,
					1
				],
				"metallicFactor":0
			}
		},
		{
			"doubleSided":true,
			"extensions":{
				"KHR_materials_specular":{
					"specularFactor":0
				}
			},
			"name":"dark",
			"pbrMetallicRoughness":{
				"baseColorFactor":[
					0.2745097875595093,
					0.29803919792175293,
					0.34117650985717773,
					1
				],
				"metallicFactor":0
			}
		}
	],
	"meshes":[
		{
			"name":"monorail_trainPassenger",
			"primitives":[
				{
					"attributes":{
						"POSITION":0,
						"NORMAL":1,
						"TEXCOORD_0":2
					},
					"indices":3,
					"material":0
				},
				{
					"attributes":{
						"POSITION":4,
						"NORMAL":5,
						"TEXCOORD_0":6
					},
					"indices":7,
					"material":1
				},
				{
					"attributes":{
						"POSITION":8,
						"NORMAL":9,
						"TEXCOORD_0":10
					},
					"indices":11,
					"material":2
				},
				{
					"attributes":{
						"POSITION":12,
						"NORMAL":13,
						"TEXCOORD_0":14
					},
					"indices":15,
					"material":3
				}
			]
		}
	],
	"accessors":[
		{
			"bufferView":0,
			"componentType":5126,
			"count":84,
			"max":[
				0.25,
				0.5,
				-0.15000000596046448
			],
			"min":[
				-0.25,
				-0.5,
				-0.75
			],
			"type":"VEC3"
		},
		{
			"bufferView":1,
			"componentType":5126,
			"count":84,
			"type":"VEC3"
		},
		{
			"bufferView":2,
			"componentType":5126,
			"count":84,
			"type":"VEC2"
		},
		{
			"bufferView":3,
			"componentType":5123,
			"count":168,
			"type":"SCALAR"
		},
		{
			"bufferView":4,
			"componentType":5126,
			"count":92,
			"max":[
				0.25,
				0.5,
				-0.20000000298023224
			],
			"min":[
				-0.25,
				-0.5,
				-0.800000011920929
			],
			"type":"VEC3"
		},
		{
			"bufferView":5,
			"componentType":5126,
			"count":92,
			"type":"VEC3"
		},
		{
			"bufferView":6,
			"componentType":5126,
			"count":92,
			"type":"VEC2"
		},
		{
			"bufferView":7,
			"componentType":5123,
			"count":150,
			"type":"SCALAR"
		},
		{
			"bufferView":8,
			"componentType":5126,
			"count":28,
			"max":[
				0.25,
				0.4000000059604645,
				-0.25
			],
			"min":[
				-0.25,
				-0.4000000059604645,
				-0.4000000059604645
			],
			"type":"VEC3"
		},
		{
			"bufferView":9,
			"componentType":5126,
			"count":28,
			"type":"VEC3"
		},
		{
			"bufferView":10,
			"componentType":5126,
			"count":28,
			"type":"VEC2"
		},
		{
			"bufferView":11,
			"componentType":5123,
			"count":48,
			"type":"SCALAR"
		},
		{
			"bufferView":12,
			"componentType":5126,
			"count":72,
			"max":[
				0.2199999988079071,
				0.5,
				0
			],
			"min":[
				-0.2199999988079071,
				-0.5,
				-0.6499999761581421
			],
			"type":"VEC3"
		},
		{
			"bufferView":13,
			"componentType":5126,
			"count":72,
			"type":"VEC3"
		},
		{
			"bufferView":14,
			"componentType":5126,
			"count":72,
			"type":"VEC2"
		},
		{
			"bufferView":15,
			"componentType":5123,
			"count":126,
			"type":"SCALAR"
		}
	],
	"bufferViews":[
		{
			"buffer":0,
			"byteLength":1008,
			"byteOffset":0,
			"target":34962
		},
		{
			"buffer":0,
			"byteLength":1008,
			"byteOffset":1008,
			"target":34962
		},
		{
			"buffer":0,
			"byteLength":672,
			"byteOffset":2016,
			"target":34962
		},
		{
			"buffer":0,
			"byteLength":336,
			"byteOffset":2688,
			"target":34963
		},
		{
			"buffer":0,
			"byteLength":1104,
			"byteOffset":3024,
			"target":34962
		},
		{
			"buffer":0,
			"byteLength":1104,
			"byteOffset":4128,
			"target":34962
		},
		{
			"buffer":0,
			"byteLength":736,
			"byteOffset":5232,
			"target":34962
		},
		{
			"buffer":0,
			"byteLength":300,
			"byteOffset":5968,
			"target":34963
		},
		{
			"buffer":0,
			"byteLength":336,
			"byteOffset":6268,
			"target":34962
		},
		{
			"buffer":0,
			"byteLength":336,
			"byteOffset":6604,
			"target":34962
		},
		{
			"buffer":0,
			"byteLength":224,
			"byteOffset":6940,
			"target":34962
		},
		{
			"buffer":0,
			"byteLength":96,
			"byteOffset":7164,
			"target":34963
		},
		{
			"buffer":0,
			"byteLength":864,
			"byteOffset":7260,
			"target":34962
		},
		{
			"buffer":0,
			"byteLength":864,
			"byteOffset":8124,
			"target":34962
		},
		{
			"buffer":0,
			"byteLength":576,
			"byteOffset":8988,
			"target":34962
		},
		{
			"buffer":0,
			"byteLength":252,
			"byteOffset":9564,
			"target":34963
		}
	],
	"buffers":[
		{
			"byteLength":9816,
			"uri":"monorail_trainPassenger.bin"
		}
	]
}
